solid OpenSCAD_Model
  facet normal -0 0 1
    outer loop
      vertex 6.3 42.675 1
      vertex 60.45 0.575 1
      vertex 60.45 42.675 1
    endloop
  endfacet
  facet normal 0 0 1
    outer loop
      vertex 60.45 0.575 1
      vertex 6.3 42.675 1
      vertex 6.3 0.575 1
    endloop
  endfacet
  facet normal 0 0 -1
    outer loop
      vertex 6.3 0.575 0
      vertex 60.45 42.675 0
      vertex 60.45 0.575 0
    endloop
  endfacet
  facet normal -0 0 -1
    outer loop
      vertex 60.45 42.675 0
      vertex 6.3 0.575 0
      vertex 6.3 42.675 0
    endloop
  endfacet
  facet normal 0 -1 0
    outer loop
      vertex 6.3 0.575 0
      vertex 60.45 0.575 1
      vertex 6.3 0.575 1
    endloop
  endfacet
  facet normal 0 -1 -0
    outer loop
      vertex 60.45 0.575 1
      vertex 6.3 0.575 0
      vertex 60.45 0.575 0
    endloop
  endfacet
  facet normal 1 -0 0
    outer loop
      vertex 60.45 0.575 1
      vertex 60.45 42.675 0
      vertex 60.45 42.675 1
    endloop
  endfacet
  facet normal 1 0 0
    outer loop
      vertex 60.45 42.675 0
      vertex 60.45 0.575 1
      vertex 60.45 0.575 0
    endloop
  endfacet
  facet normal 0 1 -0
    outer loop
      vertex 60.45 42.675 0
      vertex 6.3 42.675 1
      vertex 60.45 42.675 1
    endloop
  endfacet
  facet normal 0 1 0
    outer loop
      vertex 6.3 42.675 1
      vertex 60.45 42.675 0
      vertex 6.3 42.675 0
    endloop
  endfacet
  facet normal -1 0 0
    outer loop
      vertex 6.3 0.575 0
      vertex 6.3 42.675 1
      vertex 6.3 42.675 0
    endloop
  endfacet
  facet normal -1 -0 0
    outer loop
      vertex 6.3 42.675 1
      vertex 6.3 0.575 0
      vertex 6.3 0.575 1
    endloop
  endfacet
endsolid OpenSCAD_Model
